<?xml version="1.0" encoding="utf-8"?>
<!-- Generator: Adobe Illustrator 16.0.0, SVG Export Plug-In . SVG Version: 6.00 Build 0)  -->
<!DOCTYPE svg PUBLIC "-//W3C//DTD SVG 1.1//EN" "http://www.w3.org/Graphics/SVG/1.1/DTD/svg11.dtd">
<svg version="1.1" id="Capa_1" xmlns="http://www.w3.org/2000/svg" xmlns:xlink="http://www.w3.org/1999/xlink" x="0px" y="0px"
	 width="283.464px" height="283.464px" viewBox="0 0 283.464 283.464" enable-background="new 0 0 283.464 283.464"
	 xml:space="preserve">
<path fill="none" stroke="#000000" stroke-miterlimit="10" d="M52.119,207.227c6.826-7.225,12.674-15.083,19.647-22.214
	c8.981-9.183,14.551-22.163,22.241-32.544c10.086-13.617,21.995-25.066,33.323-37.457"/>
<path fill="none" stroke="#000000" stroke-miterlimit="10" d="M71.805,198.699c7.125-6.137,11.935-17.618,16.988-25.577
	c8.005-12.608,17.344-24.376,27.432-35.189"/>
<path fill="none" stroke="#000000" stroke-miterlimit="10" d="M86.443,192.302c10.49-12.604,18.838-27.027,29.771-39.366
	c11.572-13.059,24.849-24.25,35.849-37.924"/>
<path fill="none" stroke="#000000" stroke-miterlimit="10" d="M67.767,234.945c19.617-24.587,39.478-49.814,57.543-75.691"/>
<path fill="none" stroke="#000000" stroke-miterlimit="10" d="M50.1,242.941c11.683-13.039,20.606-29.35,33.314-41.577"/>
<path fill="none" stroke="#000000" stroke-miterlimit="10" d="M30.918,249.337c12.473-10.05,19.106-27.541,30.792-38.912"/>
<path fill="none" stroke="#000000" stroke-miterlimit="10" d="M49.09,194.435c13.573-14.391,27.444-29.877,39.408-45.812
	c5.157-6.869,9.229-14.719,14.668-21.339c6.717-8.173,14.844-14.867,22.144-22.4"/>
<path fill="none" stroke="#000000" stroke-miterlimit="10" d="M121.777,91.559c-1.904,2.73-5.619,4.709-8.133,6.871
	c-7.504,6.451-14.043,13.395-19.642,21.769c-7.58,11.337-17.792,21.252-22.061,34.388c-4.053,12.47-15.988,24.834-24.859,33.896
	c-13.807,14.104-26.146,25.759-33.831,44.864"/>
<path fill="none" stroke="#000000" stroke-miterlimit="10" d="M87.453,237.077c7.663-10.709,13.714-21.761,23.297-30.943
	c11.4-10.923,22.329-21.698,31.218-35.153"/>
<path fill="none" stroke="#000000" stroke-miterlimit="10" d="M35.462,189.637c6.298-4.948,11.336-13.576,16.657-19.723
	c7.11-8.213,14.033-16.429,20.696-25.053"/>
<path fill="none" stroke="#000000" stroke-miterlimit="10" d="M72.815,127.805c12.809-12.038,21.204-28.771,34.324-40.51"/>
<path fill="none" stroke="#000000" stroke-miterlimit="10" d="M43.033,164.584c5.765-9.628,14.107-18.625,22.21-26.119"/>
<path fill="none" stroke="#000000" stroke-miterlimit="10" d="M59.186,131.003c-5.207,3.953-8.82,11.762-12.743,17.042
	c-4.781,6.434-10.171,13.363-13.505,20.803"/>
<path fill="none" stroke="#000000" stroke-miterlimit="10" d="M122.282,184.307c8.574-7.925,15.332-18.409,23.8-26.641
	c9.779-9.505,19.274-19.554,29.705-28.262"/>
<path fill="none" stroke="#000000" stroke-miterlimit="10" d="M150.549,134.202c9.952-10.967,16.218-26.888,29.781-34.114"/>
<path fill="none" stroke="#000000" stroke-miterlimit="10" d="M197.998,123.541c-8.651,2.98-18.75,15.19-25.724,21.398
	c-8.042,7.157-13.32,17.476-21.219,24.443"/>
<path fill="none" stroke="#000000" stroke-miterlimit="10" d="M183.359,153.391c-12.927,9.832-23.918,26.312-33.353,39.871
	c-8.556,12.297-17.338,24.849-26.21,36.886"/>
<path fill="none" stroke="#000000" stroke-miterlimit="10" d="M119.758,217.355c0.598-0.419,1.265-0.769,1.886-1.153
	c-6.437,5.075-11.212,12.357-16.523,18.635c-5.831,6.893-13.619,12.366-18.678,19.831"/>
<path fill="none" stroke="#000000" stroke-miterlimit="10" d="M18.142,57.337c4.287-4.522,7.518-10.614,11.367-15.58
	c5.99-7.729,12.957-14.489,19.251-21.938"/>
<path fill="none" stroke="#000000" stroke-miterlimit="10" d="M24.179,60.355c6.614-5.219,10.456-13.645,16.192-19.809
	c8.639-9.283,19.304-16.128,28.226-25.04"/>
<path fill="none" stroke="#000000" stroke-miterlimit="10" d="M37.116,73.293c9.568-13.756,19.182-26.583,31.991-37.586
	C81.188,25.329,96.575,13.53,112.152,9.038"/>
<path fill="none" stroke="#000000" stroke-miterlimit="10" d="M140.613,6.451c-15.754,15.866-33.195,30.08-49.592,45.28"/>
<path fill="none" stroke="#000000" stroke-miterlimit="10" d="M152.257,10.332c-3.81-0.179-9,4.867-12.07,6.809
	c-15.416,9.754-26.174,22.628-34.935,38.471"/>
<path fill="none" stroke="#000000" stroke-miterlimit="10" d="M163.469,10.763c-16.978,12.956-32.53,25.777-44.849,43.555"/>
<path fill="none" stroke="#000000" stroke-miterlimit="10" d="M185.462,2.57c-2.771,5.377-8.051,9.867-11.568,14.887
	c-3.747,5.347-8.424,8.449-13.699,12.22c-13.498,9.648-24.793,22.424-33.812,36.286"/>
<path fill="none" stroke="#000000" stroke-miterlimit="10" d="M166.057,40.519c-5.69-0.063-12.495,7.994-15.884,11.706
	c-8.076,8.843-16.276,17.987-22.927,27.968"/>
<path fill="none" stroke="#000000" stroke-miterlimit="10" d="M163.9,52.593c-5.071,2.517-8.589,7.776-12.405,11.791
	c-8.172,8.597-16.967,16.299-24.25,25.728"/>
<path fill="none" stroke="#000000" stroke-miterlimit="10" d="M160.882,65.099c-11.524,11.443-23.237,22.615-31.912,36.655"/>
<path fill="none" stroke="#000000" stroke-miterlimit="10" d="M166.919,68.549c-4.304,5.559-10.907,9.702-15.612,15.1
	c-7.254,8.323-13.256,17.542-19.318,26.73"/>
<path fill="none" stroke="#000000" stroke-miterlimit="10" d="M175.975,72.43c-15.434,6.571-21.042,24.971-31.48,36.655"/>
<path fill="none" stroke="#000000" stroke-miterlimit="10" d="M104.821,69.412c-10.222,8.924-16.615,20.963-26.306,30.187"/>
<path fill="none" stroke="#000000" stroke-miterlimit="10" d="M118.62,65.53c-3.514-0.484-12.338,10.706-15.093,14.231"/>
<path fill="none" stroke="#000000" stroke-miterlimit="10" d="M122.933,71.568c-7.735,2.12-14.905,14.025-20.268,19.837"/>
<path fill="none" stroke="#000000" stroke-miterlimit="10" d="M89.727,57.768c-2.039,7.035-11.85,14.068-16.422,19.37
	c-9.447,10.954-17.958,22.847-25.839,34.966"/>
<path fill="none" stroke="#000000" stroke-miterlimit="10" d="M96.627,61.218c-3.004,3.531-7.321,6.292-10.844,9.321
	c-14.193,12.199-25.986,27.679-34.004,44.583"/>
<path fill="none" stroke="#000000" stroke-miterlimit="10" d="M85.415,46.556c-5.456,0.698-10.938,7.841-14.336,11.678
	C60.554,70.121,51.15,82.617,43.584,96.58"/>
<path fill="none" stroke="#000000" stroke-miterlimit="10" d="M88.434,31.462c-1.689-0.505-4.419,2.773-6.04,4.21
	c-9.606,8.522-18.075,18.21-27.597,26.839"/>
<path fill="none" stroke="#000000" stroke-miterlimit="10" d="M32.804,106.929c-2.418,5.663-7.386,10.82-10.709,15.998
	c-6.035,9.402-11.465,19.29-16.458,29.282"/>
<path fill="none" stroke="#000000" stroke-miterlimit="10" d="M37.116,120.298c-10.136,14.271-24.792,24.803-30.618,42.261"/>
<path fill="none" stroke="#000000" stroke-miterlimit="10" d="M49.622,121.591c-3.832,1.004-8.324,8.619-10.634,11.548
	C29.314,145.4,21.687,159.634,14.26,173.34"/>
<path fill="none" stroke="#000000" stroke-miterlimit="10" d="M76.359,105.636c-6.261,1.196-13.341,14.794-16.387,19.837"/>
<path fill="none" stroke="#000000" stroke-miterlimit="10" d="M79.809,85.799c-6.385,1.804-11.585,13.983-14.231,19.406"/>
<path fill="none" stroke="#000000" stroke-miterlimit="10" d="M201.849,54.75c-2.702,4.376-6.919,8.179-10.338,12.032
	c-9.979,11.249-19.494,22.873-27.18,35.835"/>
<path fill="none" stroke="#000000" stroke-miterlimit="10" d="M145.788,140.997c0.596-0.225,1.061-0.101,1.612-0.493
	c-5.501,4.178-9.426,10.15-14.118,15.155"/>
<path fill="none" stroke="#000000" stroke-miterlimit="10" d="M200.125,10.763c-12.342,9.193-23.995,19.973-33.206,32.343"/>
<path fill="none" stroke="#000000" stroke-miterlimit="10" d="M206.162,12.488c-3.687,5.194-9.21,9.149-13.913,13.333
	c-9.071,8.073-16.199,17.181-24.036,26.34"/>
<path fill="none" stroke="#000000" stroke-miterlimit="10" d="M222.549,11.625c-15.911,11.444-30.891,21.027-40.537,38.812"/>
<path fill="none" stroke="#000000" stroke-miterlimit="10" d="M240.229,13.351c-12.542,7.675-25.892,18.199-34.93,29.755"/>
<path fill="none" stroke="#000000" stroke-miterlimit="10" d="M220.393,82.349c-3.223-1.927-9.179,6.553-11.159,8.573
	c-10.482,10.691-21.126,21.201-31.533,31.964"/>
<path fill="none" stroke="#000000" stroke-miterlimit="10" d="M220.824,69.412c-4.237,0.603-8.711,6.217-11.679,8.947
	c-7.157,6.582-15.162,14.479-19.37,23.396"/>
<path fill="none" stroke="#000000" stroke-miterlimit="10" d="M236.349,50.437c-5.042,2.145-9.456,6.656-13.776,9.938
	c-9.472,7.196-19.118,13.655-26.33,23.268"/>
<path fill="none" stroke="#000000" stroke-miterlimit="10" d="M254.46,32.325c-4.219-2.327-21.147,13.848-24.581,17.25"/>
<path fill="none" stroke="#000000" stroke-miterlimit="10" d="M17.71,75.88C9.705,81.203,1.85,92.991-1.695,101.754"/>
<path fill="none" stroke="#000000" stroke-miterlimit="10" d="M21.591,87.092c-8.426,2.762-13.993,15.426-18.974,21.993"/>
<path fill="none" stroke="#000000" stroke-miterlimit="10" d="M26.766,87.523c-6.542,6.575-15.312,17.132-20.268,26.306"/>
<path fill="none" stroke="#000000" stroke-miterlimit="10" d="M28.922,20.25c0.039-0.218,1.253-0.401-0.085-0.369
	C20.891,25.365,10.95,37.483,7.792,46.556"/>
<path fill="none" stroke="#000000" stroke-miterlimit="10" d="M23.748,11.625C20.69,17.794,12.405,24.88,6.929,28.875"/>
<path fill="none" stroke="#000000" stroke-miterlimit="10" d="M20.298,5.157C11.507,9.805,4.993,20.381-2.126,27.15"/>
<path fill="none" stroke="#000000" stroke-miterlimit="10" d="M36.685,15.507C40.737,7.875,51.149,0.671,59.109-2.174"/>
<path fill="none" stroke="#000000" stroke-miterlimit="10" d="M51.778,14.213C58.189,9.05,65.601,2.424,72.909-1.312"/>
<path fill="none" stroke="#000000" stroke-miterlimit="10" d="M69.459,14.644C71.599,8.796,80.51,5.09,85.415,2.138"/>
<path fill="none" stroke="#000000" stroke-miterlimit="10" d="M76.359,16.369c4.319-6.748,13.487-9.473,18.975-15.093"/>
<path fill="none" stroke="#000000" stroke-miterlimit="10" d="M102.665,30.6c11.976-11.54,22.105-23.167,36.224-32.343"/>
<path fill="none" stroke="#000000" stroke-miterlimit="10" d="M225.136,19.819c-0.563-1.135,2.578-3.821,4.215-5.497
	c7.397-7.572,14.32-16.008,24.247-20.377"/>
<path fill="none" stroke="#000000" stroke-miterlimit="10" d="M241.092,25.856c4.111-2.856,7.304-7.33,10.883-10.805
	c5.986-5.812,12.371-10.756,18.872-15.932"/>
<path fill="none" stroke="#000000" stroke-miterlimit="10" d="M241.092,33.619c6.06-8.494,19.213-13.204,27.599-18.975"/>
<path fill="none" stroke="#000000" stroke-miterlimit="10" d="M233.761,31.031c-10.04,4.963-19.683,16.25-26.306,26.306"/>
<path fill="none" stroke="#000000" stroke-miterlimit="10" d="M200.125,43.969c-3.07-0.727-13.666,15.402-15.956,18.543"/>
<path fill="none" stroke="#000000" stroke-miterlimit="10" d="M27.198,175.928c-2.366,4.019-6.843,7.335-9.973,10.808
	c-6.925,7.686-13.155,15.802-17.195,25.416"/>
<path fill="none" stroke="#000000" stroke-miterlimit="10" d="M27.629,191.452c-3.642,1.131-6.292,4.583-8.718,7.345
	c-8.039,9.156-14.651,20.005-19.744,31.035"/>
<path fill="none" stroke="#000000" stroke-miterlimit="10" d="M9.948,168.597c-4.541,6.405-7.902,13.381-11.644,20.268"/>
<path fill="none" stroke="#000000" stroke-miterlimit="10" d="M219.099,132.373c0.166-0.104,1.478-0.454,0.401-0.294
	c-12.649,10.792-23.483,26.081-32.313,39.968"/>
<path fill="none" stroke="#000000" stroke-miterlimit="10" d="M200.556,172.909c-4.592,1.292-8.256,6.546-11.319,9.877
	c-10.477,11.396-19.855,23.208-28.787,35.833"/>
<path fill="none" stroke="#000000" stroke-miterlimit="10" d="M225.567,169.028c-8.824,2.095-17.165,13.094-22.785,19.374
	c-18.768,20.973-38.626,42.13-49.231,68.599"/>
<path fill="none" stroke="#000000" stroke-miterlimit="10" d="M257.048,147.466c-2.849,3.631-6.691,6.281-9.847,9.625
	c-9.581,10.152-17.375,22.441-25.8,33.54c-9.439,12.436-18.026,25.464-27.368,37.961c-11.435,15.297-24.599,28.936-35.308,44.796"/>
<path fill="none" stroke="#000000" stroke-miterlimit="10" d="M259.204,159.109c-5.876,3.799-10.702,11.468-14.762,16.828
	c-7.545,9.959-14.261,20.47-20.168,31.471"/>
<path fill="none" stroke="#000000" stroke-miterlimit="10" d="M232.467,219.914c5.756-13.011,13.364-24.093,22.757-34.771
	c5.81-6.604,12.871-12.644,17.779-19.997"/>
<path fill="none" stroke="#000000" stroke-miterlimit="10" d="M244.111,220.776c15.98-19.425,31.886-37.764,52.18-53.042"/>
<path fill="none" stroke="#000000" stroke-miterlimit="10" d="M250.148,231.558c4.843-7.254,10.371-14.007,15.837-20.792
	c4.647-5.769,8.358-11.909,13.919-16.726"/>
<path fill="none" stroke="#000000" stroke-miterlimit="10" d="M229.449,121.16c2.115-5.517,6.66-10.639,9.963-15.463
	c9.47-13.829,20.961-25.915,34.454-35.854"/>
<path fill="none" stroke="#000000" stroke-miterlimit="10" d="M231.605,128.06c2.965-5.396,7.134-9.976,11.153-14.589
	c9.845-11.301,19.922-22.461,31.54-31.985"/>
<path fill="none" stroke="#000000" stroke-miterlimit="10" d="M238.936,132.373c11.192-14.305,24.695-26.43,37.518-39.243"/>
<path fill="none" stroke="#000000" stroke-miterlimit="10" d="M220.824,111.673c5.211-3.803,9.085-12.313,13.289-17.312
	c10.544-12.539,22.908-22.391,35.873-32.281"/>
<path fill="none" stroke="#000000" stroke-miterlimit="10" d="M209.18,112.536c5.612-6.522,10.829-13.337,16.807-19.562
	c11.361-11.83,24.365-21.436,36.667-32.188"/>
<path fill="none" stroke="#000000" stroke-miterlimit="10" d="M240.229,68.118c5.126-4.168,9.479-9.409,14.26-13.966
	c8.438-8.043,17.487-15.419,25.846-23.552"/>
<path fill="none" stroke="#000000" stroke-miterlimit="10" d="M233.33,72.43c4.729-5.578,9.397-11.553,14.125-17.246
	c11.944-14.386,26.144-24.156,41.505-34.502"/>
<path fill="none" stroke="#000000" stroke-miterlimit="10" d="M196.674,113.829c3.896-1.486,6.602-7.346,9.111-10.534
	c5.686-7.222,11.824-13.794,18.919-19.653"/>
<path fill="none" stroke="#000000" stroke-miterlimit="10" d="M148.807,176.359c-10.993,3.522-20.979,21.423-26.306,30.618"/>
<path fill="none" stroke="#000000" stroke-miterlimit="10" d="M67.734,243.201c-5.204,1.59-9.555,5.801-13.44,9.383
	c-9.185,8.47-16.952,17.897-24.078,28.135"/>
<path fill="none" stroke="#000000" stroke-miterlimit="10" d="M44.447,213.445c-3.206,3.006-5.582,6.918-8.302,10.35
	c-8.087,10.201-17.324,18.972-26.629,28.031"/>
<path fill="none" stroke="#000000" stroke-miterlimit="10" d="M23.748,249.238c-8.611,4.866-16.568,18.801-21.13,27.168"/>
<path fill="none" stroke="#000000" stroke-miterlimit="10" d="M28.922,257c-6.252,0.327-11.936,12.569-15.956,16.387"/>
<path fill="none" stroke="#000000" stroke-miterlimit="10" d="M50.484,280.288c4.003-4.015,6.749-9.419,10.403-13.775
	c6.692-7.976,13.701-15.56,21.508-22.449"/>
<path fill="none" stroke="#000000" stroke-miterlimit="10" d="M84.983,279.425c-2.145-4.548,18.949-24.789,21.993-28.461"/>
<path fill="none" stroke="#000000" stroke-miterlimit="10" d="M100.077,276.406c3.554-3.126,5.855-7.826,8.669-11.58
	c6.36-8.485,13.251-16.207,21.086-23.35"/>
<path fill="none" stroke="#000000" stroke-miterlimit="10" d="M174.25,183.69c-4.422,0.881-7.836,4.793-10.896,7.819
	c-7.855,7.768-14.713,16.334-21.016,25.387"/>
<path fill="none" stroke="#000000" stroke-miterlimit="10" d="M174.25,191.452c-2.544,0.973-4.176,2.82-6.005,4.77
	c-7.974,8.5-15.071,18.24-22.025,27.573"/>
<path fill="none" stroke="#000000" stroke-miterlimit="10" d="M207.887,131.51c-2.755,0.309-5.17,2.706-7.246,4.68
	c-6.788,6.458-12.891,14.137-19.06,21.194"/>
<path fill="none" stroke="#000000" stroke-miterlimit="10" d="M213.924,115.985c-6.099,4.494-11.476,9.745-16.818,15.093"/>
<path fill="none" stroke="#000000" stroke-miterlimit="10" d="M140.613,112.536c-8.19,3.406-13.47,15.658-19.406,21.993"/>
<path fill="none" stroke="#000000" stroke-miterlimit="10" d="M194.518,74.586c-5.722,8.594-17.123,15.297-21.993,25.443"/>
<path fill="none" stroke="#000000" stroke-miterlimit="10" d="M169.506,9.469c-0.52,6.397-10.889,13.183-14.662,18.112"/>
<path fill="none" stroke="#000000" stroke-miterlimit="10" d="M277.316,108.654c0.44-0.222,0.858-0.478,1.254-0.77
	c-9.486,7.258-19.679,15.57-27.128,24.919"/>
<path fill="none" stroke="#000000" stroke-miterlimit="10" d="M278.61,116.848c-8.821,6.531-16.105,14.145-23.718,21.993"/>
<path fill="none" stroke="#000000" stroke-miterlimit="10" d="M280.766,124.179c-8.439,6.155-15.915,15.572-22.424,23.718"/>
<path fill="none" stroke="#000000" stroke-miterlimit="10" d="M280.766,135.391c-6.567,4.231-11.245,10.932-18.112,15.093"/>
<path fill="none" stroke="#000000" stroke-miterlimit="10" d="M241.092,135.391c-4.054,1.973-6.84,5.765-9.847,8.988
	c-5.169,5.541-10.448,10.943-15.165,16.887"/>
<path fill="none" stroke="#000000" stroke-miterlimit="10" d="M248.423,140.566c-3.39,0.379-7.062,5.518-9.439,7.715
	c-6.315,5.835-12.191,11.988-18.16,18.16"/>
<path fill="none" stroke="#000000" stroke-miterlimit="10" d="M250.148,145.741c-3.294,1.018-5.462,4.211-7.798,6.614
	c-5.01,5.155-9.63,10.649-14.626,15.811"/>
<path fill="none" stroke="#000000" stroke-miterlimit="10" d="M209.18,193.608c-2.964,2.07-5.057,5.708-7.261,8.539
	c-5.865,7.535-12.47,15.146-17.319,23.373"/>
<path fill="none" stroke="#000000" stroke-miterlimit="10" d="M215.649,219.914c-0.045,0.313-3.813,5.222-5.084,6.877
	c-6.077,7.915-12.98,16.225-16.909,25.465"/>
<path fill="none" stroke="#000000" stroke-miterlimit="10" d="M232.898,234.145c-10.402,7.82-20.522,15.861-28.462,26.306"/>
<path fill="none" stroke="#000000" stroke-miterlimit="10" d="M259.204,230.695c0.403-0.125,0.785-0.295,1.146-0.51
	c-3.919,1.306-7.012,4.815-9.831,7.735c-7.83,8.109-13.932,17.539-20.208,26.843"/>
<path fill="none" stroke="#000000" stroke-miterlimit="10" d="M271.71,225.52c0.006,1.835-5.059,6.345-6.907,8.237
	c-8.584,8.787-17.213,17.324-24.143,27.556"/>
<path fill="none" stroke="#000000" stroke-miterlimit="10" d="M275.591,229.833c-2.784,4.749-7.77,8.687-11.689,12.449
	c-7.623,7.316-14.171,15.362-19.36,24.638"/>
<path fill="none" stroke="#000000" stroke-miterlimit="10" d="M273.004,242.77c-0.239,2.984-4.27,6.61-6.399,9.01
	c-5.6,6.314-10.471,12.413-15.163,19.452"/>
<path fill="none" stroke="#000000" stroke-miterlimit="10" d="M266.104,274.681c5.521-7.708,11.826-14.421,18.543-21.13"/>
<path fill="none" stroke="#000000" stroke-miterlimit="10" d="M272.572,219.052c2.465-3.969,6.203-7.066,9.487-10.35"/>
<path fill="none" stroke="#000000" stroke-miterlimit="10" d="M151.826,229.833c0.459,3.732-9.034,11.999-11.212,15.524"/>
<path fill="none" stroke="#000000" stroke-miterlimit="10" d="M129.401,279.856c3.249-4.78,6.698-15.08,12.937-16.387"/>
<path fill="none" stroke="#000000" stroke-miterlimit="10" d="M85.846,257c-5.164-0.047-15.399,15.118-18.543,19.837"/>
<path fill="none" stroke="#000000" stroke-miterlimit="10" d="M122.07,273.819c-2.746,0.062,4.396-6.645,5.476-7.757
	c6.34-6.534,13.053-13.687,20.829-18.548"/>
<path fill="none" stroke="#000000" stroke-miterlimit="10" d="M104.821,246.22c4.354-4.946,7.707-10.519,12.506-15.093"/>
<path fill="none" stroke="#000000" stroke-miterlimit="10" d="M188.05,248.807c-5.365,8.048-11.843,15.542-17.25,23.718"/>
<path fill="none" stroke="#000000" stroke-miterlimit="10" d="M199.262,254.844c-8.68,1.301-16.4,16.333-20.699,22.856"/>
<path fill="none" stroke="#000000" stroke-miterlimit="10" d="M199.262,262.175c0.396-0.385,0.421-0.707,0.073-0.964
	c-4.346,2.68-7.864,9.965-10.854,13.902"/>
<path fill="none" stroke="#000000" stroke-miterlimit="10" d="M226.43,226.383c-2.342-1.832-17.265,15.517-19.406,18.543"/>
<path fill="none" stroke="#000000" stroke-miterlimit="10" d="M238.936,238.889c-1.642,4.242-6.13,7.75-9.104,10.896
	c-7.655,8.101-14.711,16.063-20.22,25.759"/>
</svg>
